<svg id="Capa_1" data-name="Capa 1" xmlns="http://www.w3.org/2000/svg" viewBox="0 0 91.13 20.76"><defs><style>.cls-1,.cls-3{fill:#fff;}.cls-2{fill:#1f4879;}.cls-3{stroke:#1f4879;stroke-miterlimit:10;stroke-width:1.02px;}</style></defs><title>Mesa de trabajo 20</title><path class="cls-1" d="M78,20.24H7.72c-2.87-.17-6.43-3.3-7.21-4V4.53c.78-.72,4.34-3.84,7.21-4h71c6.16.34,11,8.43,11.79,9.87-.83,1.47-5.65,9.52-11.79,9.87H78Z"/><path class="cls-2" d="M78.47,1h.25c5.6.31,10.12,7.44,11.24,9.36-1.1,1.89-5.63,9-11.24,9.36h-71C5.44,19.6,2.36,17.22,1,16V4.75C2.36,3.54,5.44,1.16,7.75,1H78.47m0-1H7.69C4.24.21,0,4.31,0,4.31V16.45s4.24,4.1,7.69,4.3H78.78c7.1-.4,12.34-10.35,12.34-10.35v0S85.88.4,78.78,0Z"/><rect class="cls-1" x="33.02" y="4.95" width="17.2" height="10.87"/><path class="cls-2" d="M49.72,5.46V15.3H33.53V5.46H49.72m1-1H32.51V16.32H50.74V4.44Z"/><polygon class="cls-1" points="53.08 15.73 53.08 4.86 70.77 4.86 70.77 15.89 53.08 15.73"/><path class="cls-2" d="M70.26,5.37v10l-16.68-.15V5.37H70.26m1-1H52.57V16.24l18.71.17V4.35Z"/><rect class="cls-1" x="76.54" y="4.95" width="4.25" height="10.87"/><path class="cls-2" d="M80.28,5.46V15.3H77.05V5.46h3.23m1-1H76V16.32H81.3V4.44Z"/><rect class="cls-1" x="9.97" y="3.17" width="16.44" height="14.42"/><path class="cls-2" d="M25.9,3.68v13.4H10.48V3.68H25.9m1-1H9.46V18.1H26.92V2.66Z"/><line class="cls-3" x1="21.06" y1="2.66" x2="21.06" y2="18.1"/></svg>